# xmcd CD database file
# Copyright (C) 1993-1998 Ti Kan
#
# Track frame offsets:
#	183
#	12873
#	24210
#	33433
#	43438
#	62315
#	71928
#	83088
#	96440
#	105515
#	117055
#	126953
#	138300
#	149680
#	161620
#	174305
#
# Disc length: 2448 seconds
#
# Revision: 1
# Processed by: cddbd v1.4b41PL1 Copyright (c) Steve Scherf et al.
# Submitted via: xmcd 2.1 PL2
#
DISCID=d8098e10
DTITLE=Coasters - What Is The Secret Of Your Success
DYEAR=1900
DGENRE=
TTITLE0=(When She Wants Good Lovin') My Baby Comes To Me
TTITLE1=What Is The Secret Of Your Success?
TTITLE2=Gee Golly
TTITLE3=Sorry But I'm Gonna Have To Pass
TTITLE4=Besame Mucho Part 1-2
TTITLE5=Lady Like
TTITLE6=Thumbin' A Ride
TTITLE7=Ridin' Hood
TTITLE8=Girls Girls Girls Part 2
TTITLE9=Hongry
TTITLE10=Teach Me How To Shimmy
TTITLE11=Bull Tick Waltz
TTITLE12=The P.T.A.
TTITLE13=Bad Detective
TTITLE14=Lovey Dovey
TTITLE15=Wild One
EXTD=
EXTT0=
EXTT1=
EXTT2=
EXTT3=
EXTT4=
EXTT5=
EXTT6=
EXTT7=
EXTT8=
EXTT9=
EXTT10=
EXTT11=
EXTT12=
EXTT13=
EXTT14=
EXTT15=
PLAYORDER=
